<?xml version="1.0" standalone="no"?>
<!DOCTYPE svg PUBLIC "-//W3C//DTD SVG 1.1//EN" "http://www.w3.org/Graphics/SVG/1.1/DTD/svg11.dtd" >
<!--
2013-9-30: Created.
-->
<svg>
<metadata>
Created by iconfont
</metadata>
<defs>

<font id="iconfont" horiz-adv-x="1024" >
  <font-face
    font-family="iconfont"
    font-weight="500"
    font-stretch="normal"
    units-per-em="1024"
    ascent="896"
    descent="-128"
  />
    <missing-glyph />
    
    <glyph glyph-name="x" unicode="x" horiz-adv-x="1001"
d="M281 543q-27 -1 -53 -1h-83q-18 0 -36.5 -6t-32.5 -18.5t-23 -32t-9 -45.5v-76h912v41q0 16 -0.5 30t-0.5 18q0 13 -5 29t-17 29.5t-31.5 22.5t-49.5 9h-133v-97h-438v97zM955 310v-52q0 -23 0.5 -52t0.5 -58t-10.5 -47.5t-26 -30t-33 -16t-31.5 -4.5q-14 -1 -29.5 -0.5
t-29.5 0.5h-32l-45 128h-439l-44 -128h-29h-34q-20 0 -45 1q-25 0 -41 9.5t-25.5 23t-13.5 29.5t-4 30v167h911zM163 247q-12 0 -21 -8.5t-9 -21.5t9 -21.5t21 -8.5q13 0 22 8.5t9 21.5t-9 21.5t-22 8.5zM316 123q-8 -26 -14 -48q-5 -19 -10.5 -37t-7.5 -25t-3 -15t1 -14.5
t9.5 -10.5t21.5 -4h37h67h81h80h64h36q23 0 34 12t2 38q-5 13 -9.5 30.5t-9.5 34.5q-5 19 -11 39h-368zM336 498v228q0 11 2.5 23t10 21.5t20.5 15.5t34 6h188q31 0 51.5 -14.5t20.5 -52.5v-227h-327z" />
    

    
    <glyph glyph-name="equipment" unicode="&#58930;" d="M914.658198 465.007989l-22.419616 0L892.238582 602.7767249999999c0 17.162892-13.914918 31.078833-31.077809 31.078833L822.588269 633.855558l0-168.846546-29.000498 0L793.587771 666.0886800000001c0 23.037692-18.674315 41.713031-41.712007 41.713031l-51.764967 0c-23.040762 0-41.715077-18.675338-41.715077-41.713031l0-201.080691L363.178021 465.007989 363.178021 666.0886800000001c0 23.037692-18.675338 41.713031-41.713031 41.713031l-51.764967 0c-23.039739 0-41.714054-18.675338-41.714054-41.713031l0-201.080691-25.501814 0L202.484156 638.491135l-39.380916 0c-17.522072 0-31.729655-14.208607-31.729655-31.729655l0-141.752468-32.730449 0c-23.037692 0-41.713031-18.675338-41.713031-41.714054l0-24.173562c0-23.038716 18.675338-41.714054 41.713031-41.714054l32.730449 0 0-138.427746c0-17.524119 14.207583-31.730679 31.729655-31.730679l39.380916 0L202.484156 357.40734199999997l25.501814 0 0-201.079668c0-23.038716 18.675338-41.714054 41.714054-41.714054l51.764967 0c23.037692 0 41.713031 18.675338 41.713031 41.714054l0 201.079668 295.217698 0 0-201.079668c0-23.038716 18.674315-41.714054 41.715077-41.714054l51.764967 0c23.037692 0 41.712007 18.675338 41.712007 41.714054l0 201.079668L822.588269 357.40734199999997l0-165.521824 38.572504 0c17.162892 0 31.077809 13.916964 31.077809 31.076786L892.238582 357.40734199999997l22.419616 0c23.036669 0 41.713031 18.675338 41.713031 41.714054l0 24.173562C956.371228 446.33265 937.694867 465.007989 914.658198 465.007989z"  horiz-adv-x="1024" />

    
    <glyph glyph-name="sports" unicode="&#59951;" d="M511.674589 830.508403c-246.408039 0-446.161503-199.753463-446.161503-446.161503s199.753463-446.161503 446.161503-446.161503 446.161503 199.753463 446.161503 446.161503S758.082628 830.508403 511.674589 830.508403zM805.538453 390.358825c-10.731412-380.171556-510.639003-298.594609-510.639003-298.594609 37.871539 16.945951 69.788459 38.20923 79.821977 47.89994 0 0-157.037593 97.129154-157.037593 250.694669 0 162.331155 131.596154 293.927309 293.927309 293.927309S810.408367 562.890296 805.538453 390.358825z"  horiz-adv-x="1024" />

    
    <glyph glyph-name="order" unicode="&#58901;" d="M733.280244 250.10857c-54.359049 0-98.429777-44.246737-98.429777-98.812493 0-54.606689 44.069705-98.841146 98.429777-98.841146s98.429777 44.234457 98.429777 98.841146C831.710021 205.86183400000004 787.639293 250.10857 733.280244 250.10857zM798.258141 177.04757800000004c0 0-70.821999-69.891813-71.161736-70.244854-8.068769-7.971555-12.287861-6.702656-15.875572-3.081175l-42.341341 42.518373c-3.597945 3.598968-3.388167 9.66615 0.457418 13.522991s9.865695 4.068665 13.462616 0.447185l34.643008-34.781154 67.068512 65.75868c3.8814 3.810792 10.113335 3.727904 13.922081-0.163729C802.221406 187.11384099999998 802.149774 180.857347 798.258141 177.04757800000004zM406.700257 647.580141l150.802588 0c15.897062 0 29.290093 15.004739 29.290093 33.512255 0 18.49626-13.368472 33.441647-30.137391 33.441647l-149.95529 0c-16.743336 0-30.125111-14.944364-30.125111-33.441647C376.576169 662.583856 389.992737 647.580141 406.700257 647.580141zM721.910289 280.844595c17.553795 0 34.264385-3.656273 49.408293-10.252505l0 331.22375c0 45.398979-24.387433 76.853365-75.464739 76.853365l-67.963904 0c0.681522-3.63376 1.081635-7.349385 1.081635-11.100826 0.035816-28.137851-20.306488-55.82954-44.493354-55.82954l-208.795397 0c-25.451672 0-45.811372 27.691689-45.811372 55.82954 0.035816 3.751441 0.417509 7.467065 1.116427 11.100826l-68.792782 0c-55.282071 0-68.858274-31.454386-68.858274-76.853365l0-449.64893c0-48.773843 19.442818-76.077699 73.043596-76.077699l360.027773 0c-18.014282 21.659299-28.856211 49.526997-28.856211 79.933517C597.55198 224.95775100000003 653.240303 280.844595 721.910289 280.844595zM338.448804 507.936707l294.685579 0c10.886955 0 20.10592-10.17064 20.917402-21.929452 0-10.958586-11.464099-22.717398-22.340821-22.717398L336.19753 463.289857c-10.906397 0-17.832134 11.757788-17.832134 22.717398C318.365396 496.978121 327.566966 507.936707 338.448804 507.936707zM471.149105 211.200422L336.19753 211.200422c-10.906397 0-17.832134 11.746532-17.832134 22.717398 0 10.946306 9.201569 21.905916 20.083407 21.905916l134.122697 0c10.900258 0 20.106943-10.148128 20.918425-21.905916C493.489926 222.946954 482.038106 211.200422 471.149105 211.200422zM334.985936 335.28653199999997c-10.894118 0-21.753443 13.415544-21.753443 24.375154 0 10.912537 9.18929 20.259416 20.095687 20.259416l294.677393 0c10.889001 0 20.084431-8.501628 20.919449-20.259416 0-10.959609-7.515161-24.375154-18.413372-24.375154L334.985936 335.28653199999997z"  horiz-adv-x="1024" />

    
    <glyph glyph-name="collection" unicode="&#58895;" d="M327.728136 91.69872399999997l150.60509 60.966537 33.721009 13.627369 33.721009-13.627369 150.609183-60.914348-4.484128 166.562527-0.907673 32.985252 20.663622 25.711592 96.563266 120.353089L652.842749 484.425224l-30.030967 9.081843-17.825994 25.716708-92.931552 134.033669-92.871177-134.033669-17.825994-25.716708-30.033014-9.081843-155.490354-47.120181 96.566336-120.29476 20.663622-25.711592-0.907673-32.985252L327.728136 91.69872399999997M789.940197-43.129031000000055L512.054235 69.27296899999999 234.17339-43.129031000000055l8.115841 303.886125L62.389956 484.824313l282.879696 85.667102L512.054235 811.130054l166.843936-240.638639 282.711873-85.667102L781.766027 260.756071 789.940197-43.129031000000055 789.940197-43.129031000000055 789.940197-43.129031000000055z"  horiz-adv-x="1024" />

    
    <glyph glyph-name="down" unicode="&#58925;" d="M897.422222 577.422222c0 7.111111-2.844444 12.8-7.111111 18.488889-9.955556 9.955556-24.177778 9.955556-34.133333 0l-341.333333-372.622222-341.333333 372.622222c-9.955556 9.955556-24.177778 9.955556-34.133333 0-9.955556-9.955556-9.955556-27.022222 0-36.977778L497.777778 167.822222c9.955556-9.955556 24.177778-9.955556 34.133333 0l358.4 391.111111C894.577778 564.622222 897.422222 571.733333 897.422222 577.422222L897.422222 577.422222 897.422222 577.422222zM897.422222 577.422222M284.444444 766.577778"  horiz-adv-x="1026" />

    
    <glyph glyph-name="upload" unicode="&#58989;" d="M852.463694 518.7387269999999l-125.784798 0 0-52.379974 125.784798 0c28.927843 0 52.379974-23.453155 52.379974-52.377928l0-372.519272c0-28.92682-23.452131-52.378951-52.379974-52.378951L171.533236-10.917398000000048c-28.927843 0-52.379974 23.452131-52.379974 52.378951L119.153262 413.981848c0 28.924773 23.452131 52.377928 52.379974 52.377928l125.784798 0 0 52.379974-125.784798 0c-57.852616 0-104.756879-46.907333-104.756879-104.756879l0-372.519272c0-57.851593 46.905286-104.759949 104.756879-104.759949l680.928411 0c57.855686 0 104.760972 46.908356 104.760972 104.759949L957.222619 413.981848C957.224666 471.831394 910.317333 518.7387269999999 852.463694 518.7387269999999zM339.924411 611.758284L485.810013 757.666398l0-490.313072c0-14.473643 11.711739-26.189476 26.189476-26.189476s26.189476 11.713786 26.189476 26.189476L538.188964 754.647645l142.587486-142.861732c5.13802-5.140067 11.840676-7.698333 18.540262-7.698333 6.701632 0 13.403265 2.557242 18.518772 7.646144 10.229992 10.232039 10.229992 26.804483 0.023536 37.033451L529.083585 837.92635c-4.886287 4.936429-11.585873 7.697309-18.518772 7.697309-0.024559 0-0.024559 0-0.024559 0-6.928806 0-13.579273-2.76088-18.491143-7.67275L302.867424 648.7927589999999c-10.232039-10.228969-10.232039-26.803459 0-37.033451C313.120952 601.528292 329.695442 601.528292 339.924411 611.758284z"  horiz-adv-x="1024" />

    
    <glyph glyph-name="matches" unicode="&#58886;" d="M779.871375 778.983913c-0.198521 0-0.394996-0.010233-0.592494-0.011256L779.278881 798.749072c0 18.752086-16.726963 33.943067-37.34863 33.943067L280.254404 832.692139c-20.638039 0-37.366026-15.190981-37.366026-33.943067l0-19.783579c-0.326435 0.002047-0.649799 0.01842-0.977257 0.01842-88.561012 0-160.359244-71.798233-160.359244-160.340825 0-88.561012 71.798233-160.340825 160.359244-160.340825 5.096065 0 10.128685 0.265036 15.102976 0.731664 24.439622-72.228021 77.766155-130.475634 146.860812-160.074765l0-127.500882L325.895907 171.45827899999995c-26.260084 0-47.526433-21.302165-47.526433-47.580668l0-138.776693c0-26.279526 21.266349-47.579645 47.526433-47.579645l369.677551 0c26.260084 0 47.52848 21.300119 47.52848 47.579645L743.101937 123.877611c0 26.278503-21.268396 47.580668-47.52848 47.580668l-77.612659 0L617.960799 300.79599599999995c68.085678 30.140461 121.428583 87.507006 146.228409 158.290119 5.161556-0.503467 10.387581-0.784876 15.682167-0.784876 88.562035 0 160.358221 71.779813 160.358221 160.340825C940.229596 707.18568 868.43341 778.983913 779.871375 778.983913zM151.16842 619.760538c0 50.687426 41.062208 91.783403 91.719958 91.840708l0-145.885602c-0.334621-5.625114-0.524956-11.291161-0.524956-17.003256s0.190335-11.379165 0.524956-17.003256l0-3.63376c0-0.052189 0.004093-0.103354 0.004093-0.155543C192.232674 527.9730420000001 151.16842 569.0700429999999 151.16842 619.760538zM672.907225 80.88954100000001l0-52.888558c0-10.649548-14.876826-19.276019-33.208333-19.276019L382.259612 8.724964c-18.35095 0-33.227776 8.626471-33.227776 19.276019l0 52.888558c0 10.651594 14.876826 19.276019 33.227776 19.276019l257.43928 0C658.030399 100.16556000000003 672.907225 91.54113500000005 672.907225 80.88954100000001zM546.912649 171.45827899999995l-72.006987 0L474.905662 279.791613c10.94733-1.359974 22.12081-2.068102 33.489742-2.068102 13.07683 0 25.936719 0.930185 38.518269 2.720971L546.913673 171.45827899999995zM508.918313 347.98678500000005c-110.561072 0-196.013279 101.56621-196.013279 205.614961 0 7.303336 0.435928 14.505365 1.257643 21.592784L314.162678 733.532745c0 15.523555 11.105942 28.111245 24.793686 28.111245L682.651147 761.643989c13.68979 0 24.794709-12.58769 24.794709-28.111245l0-155.839301c1.070378-7.888667 1.622964-15.929808 1.622964-24.092721C709.069843 449.551972 619.443569 347.98678500000005 508.918313 347.98678500000005zM779.278881 530.175197l0 11.136641c0.065492 2.459005 0.104377 4.925173 0.104377 7.399527s-0.037862 4.941546-0.104377 7.399527L779.278881 709.343833c49.240471-0.264013 89.084944-40.265052 89.084944-89.583295C868.363825 570.455599 828.519352 530.438187 779.278881 530.175197z"  horiz-adv-x="1024" />

    
    <glyph glyph-name="plus" unicode="&#58968;" d="M4.8 503.488l1014.4 0 0-238.944-1014.4 0 0 238.944zM630.272 896l0-1024-236.608 0 0 1024 236.608 0z"  horiz-adv-x="1024" />

    
    <glyph glyph-name="search" unicode="&#58942;" d="M621.664 242.336c-44.48-31.68-98.88-50.336-157.664-50.336-150.208 0-272 121.792-272 272s121.792 272 272 272c150.208 0 272-121.792 272-272 0-75.104-30.432-143.104-79.68-192.32l191.904-191.904c8.8-8.8 8.576-22.912-0.256-31.744-8.896-8.896-23.04-8.96-31.744-0.256l-194.592 194.592zM464 224c132.544 0 240 107.456 240 240s-107.456 240-240 240c-132.544 0-240-107.456-240-240s107.456-240 240-240l0 0z"  horiz-adv-x="1024" />

    
    <glyph glyph-name="closebtn" unicode="&#59072;" d="M512 820.148148c113.777778 0 227.555556-50.567901 303.407407-126.419753 75.851852-75.851852 126.419753-189.62963 126.419753-303.407407 0-113.777778-50.567901-227.555556-126.419753-303.407407-75.851852-75.851852-189.62963-126.419753-303.407407-126.419753s-227.555556 50.567901-303.407407 126.419753c-75.851852 75.851852-126.419753 189.62963-126.419753 303.407407 0 113.777778 50.567901 227.555556 126.419753 303.407407C284.444444 782.222222 398.222222 820.148148 512 820.148148M512 896c-126.419753 0-252.839506-50.567901-353.975309-151.703704-202.271605-202.271605-202.271605-518.320988 0-720.592593 101.135802-101.135802 227.555556-151.703704 353.975309-151.703704s252.839506 50.567901 353.975309 151.703704c202.271605 202.271605 202.271605 518.320988 0 720.592593C764.839506 845.432099 638.419753 896 512 896L512 896zM335.239901 156.85404400000004l-53.634844 53.634844 411.200474 411.200474 53.634844-53.634844-411.200474-411.200474ZM278.520415 567.093728l53.634844 53.634844 411.200474-411.200474-53.634844-53.634844-411.200474 411.200474Z"  horiz-adv-x="1024" />

    
    <glyph glyph-name="video" unicode="&#58962;" d="M895.999744 768.00384c35.29202 0 64.004224-28.712204 64.004224-64.004224l0-640.000256c0-35.29202-28.712204-64.004224-64.004224-64.004224L127.999232-0.004863999999997759c-35.29202 0-64.004224 28.712204-64.004224 64.004224L63.995008 703.9996160000001c0 35.29202 28.712204 64.004224 64.004224 64.004224L895.999744 768.00384M895.999744 831.999872L127.999232 831.999872c-70.692577 0-128.000256-57.307679-128.000256-128.000256l0-640.000256c0-70.692577 57.307679-128.000256 128.000256-128.000256l768.000512 0c70.692577 0 128.000256 57.307679 128.000256 128.000256L1024 703.9996160000001C1024 774.692193 966.692321 831.999872 895.999744 831.999872L895.999744 831.999872zM383.999744 576.0003839999999L383.999744 191.99961599999995 703.99936 384Z"  horiz-adv-x="1040" />

    
    <glyph glyph-name="play" unicode="&#58940;" d="M512 810.666667c-235.641667 0-426.666667-191.016667-426.666667-426.666667 0-235.625 191.016667-426.666667 426.666667-426.666667 235.625 0 426.666667 191.041667 426.666667 426.666667C938.666667 619.65 747.625 810.666667 512 810.666667zM512-3.875c-214.225 0-387.891667 173.666667-387.891667 387.875 0 214.225 173.666667 387.891667 387.891667 387.891667 214.208333 0 387.875-173.666667 387.875-387.891667C899.875 169.791667 726.208333-3.875 512-3.875zM395.625 190.083333 726.333333 384 395.625 577.958333 395.625 190.083333z"  horiz-adv-x="1024" />

    
    <glyph glyph-name="medal" unicode="&#59053;" d="M600.01712 481.543145c-27.319727 7.771922-56.144439 12.02988-85.97114 12.02988-29.831702 0-58.639414-4.257957-85.95914-12.02188L428.086839 747.3214869999999 198.405136 747.3214869999999l0-132.103679 111.693883-197.183028c-66.326337-56.98943-108.358916-141.208588-108.358916-235.246648 0-171.633284 139.820602-310.775892 312.305877-310.775892s312.308877 139.143609 312.308877 310.775892c0 101.588984-48.99951 191.787082-124.753752 248.489515l128.078719 180.900191L829.679823 747.3214869999999 600.01712 747.3214869999999 600.01712 481.543145zM714.620974 182.789132c0-110.0489-89.9841-199.583004-200.574994-199.583004-110.598894 0-200.574994 89.534105-200.574994 199.583004 0 110.0439 89.9761 199.590004 200.574994 199.590004C624.636874 382.379136 714.620974 292.833032 714.620974 182.789132zM109.841022 896l0-90.159098 808.406916 0L918.247938 896 109.841022 896zM507.294047 368.92627100000004l-40.096599-121.938781-128.658713 0c-3.066969 0-5.801942-1.97998-6.751932-4.879951-0.949991-2.884971 0.097999-6.089939 2.569974-7.879921l104.110959-75.464245-40.111599-122.598774c-0.95199-2.889971 0.089999-6.089939 2.564974-7.894921 2.479975-1.774982 5.861941-1.774982 8.334917 0l104.783952 75.679243 104.553954-75.679243c1.244988-0.889991 2.709973-1.349987 4.174958-1.349987 1.449986 0 2.914971 0.459995 4.164958 1.349987 2.489975 1.809982 3.514965 4.96995 2.574974 7.894921l-40.114599 122.588774 104.328957 75.474245c2.479975 1.789982 3.524965 4.99495 2.574974 7.879921-0.949991 2.899971-3.679963 4.879951-6.739933 4.879951l-128.878711 0-39.899601 121.918781c-0.95499 2.899971-3.674963 4.864951-6.731933 4.864951C510.98601 373.77122199999997 508.251037 371.816242 507.294047 368.92627100000004z"  horiz-adv-x="1024" />

    
    <glyph glyph-name="average-speed" unicode="&#58922;" d="M511.60064 888.96c-265.81504 0-482.4832-207.15008-498.88256-468.8128-1.49504-5.504-2.90304-11.08992-2.90304-17.18272 0-3.29728 1.12128-6.144 1.57184-9.28768-0.02048-1.75104-0.26112-3.44576-0.26112-5.20192 0-0.89088 0.128-1.74592 0.13312-2.6368l1.45408 0c6.14912-22.7584 23.41888-39.51104 44.5184-39.51104l552.71424 0-40.59648-53.48864c-16.71168-22.016-12.41088-53.41184 9.60512-70.12352 22.016-16.71168 53.41184-12.41088 70.12352 9.60512l97.14176 127.98464c6.44096 8.48896 8.83712 18.38592 9.22624 28.28288 1.05472 4.70016 2.432 9.27232 2.432 14.36672 0 11.56608-3.61472 21.7088-8.6016 30.67392-1.63328 6.05184-4.3008 11.93984-8.32512 17.24416L643.79904 578.8672c-16.70656 22.016-48.1024 26.3168-70.1184 9.60512-22.016-16.70656-26.3168-48.1024-9.60512-70.1184l44.5952-58.76224L129.04448 459.59168c33.4848 180.96128 191.93856 318.22848 382.55104 318.22848 214.9376 0 389.3504-174.4128 389.3504-389.3504s-174.4128-389.3504-389.3504-389.3504c-144.9472 0-271.21664 79.49312-338.23744 197.06368 0 0-13.96736 30.6432-18.67776 44.77952-6.58432 19.75296-39.51104 40.82688-68.15232 34.52416-31.84128-7.00928-47.42656-44.2112-36.89984-75.59168l-0.13312-3.71712c75.35616-180.98176 253.75744-308.1984 462.1056-308.1984 276.51072 0 500.48 223.9744 500.48 500.48S788.10624 888.96 511.60064 888.96z"  horiz-adv-x="1024" />

    
    <glyph glyph-name="doubleup" unicode="&#58884;" d="M144.576 333.184l354.992 371.152 354.832-371.152c10.272-10.752 27.024-10.752 37.328 0 10.336 10.816 10.336 28.272 0 39.104l-373.52 390.608c-10.352 10.832-27.024 10.832-37.328 0l-373.664-390.592c-10.304-10.848-10.304-28.304 0-39.104 10.384-10.768 27.056-10.768 37.36-0.016zM144.576-20.944l354.992 371.184 354.832-371.184c10.272-10.736 27.024-10.736 37.328 0 10.336 10.848 10.336 28.272 0 39.12l-373.52 390.608c-10.352 10.832-27.024 10.832-37.328 0l-373.664-390.592c-10.304-10.864-10.304-28.288 0-39.12 10.384-10.736 27.056-10.736 37.36-0.016z"  horiz-adv-x="1024" />

    
    <glyph glyph-name="trainPlan" unicode="&#58888;" d="M409.198-118.13499999999999c-19.8 0-39.713 1.831-59.627 5.722-82.172 15.793-153.359 62.602-200.396 131.843-47.039 69.24-64.204 152.672-48.526 234.959s62.602 153.359 131.843 200.28c69.24 47.039 152.672 64.204 234.959 48.526 82.172-15.793 153.359-62.602 200.396-131.843 47.039-69.24 64.204-152.672 48.526-234.959s-62.602-153.359-131.843-200.396c-52.531-35.593-113.301-54.134-175.332-54.134zM408.054 468.633c-52.873 0-106.207-15.222-153.129-47.039-124.748-84.69-157.364-254.988-72.673-379.733 40.972-60.427 103.115-101.285 174.76-115.02 71.758-13.733 144.547 1.259 204.86 42.345 124.748 84.69 157.364 254.988 72.673 379.733-52.646 77.823-138.824 119.712-226.49 119.712zM408.742 4.437000000000012c-61.228 0-121.427 29.298-158.394 83.661-59.17 87.207-36.393 206.233 50.815 265.403 42.23 28.61 93.046 39.14 143.174 29.527 50.128-9.614 93.504-38.112 122.114-80.343 28.61-42.23 39.14-93.046 29.527-143.174-9.613-50.128-38.112-93.504-80.343-122.114v0c-32.618-22.316-69.928-32.961-106.894-32.961zM408.169 353.385c-31.358 0-61.916-9.386-88.353-27.353-72.102-48.869-90.871-147.293-42.001-219.28 30.559-44.977 80.343-69.24 130.927-69.24 30.559 0 61.343 8.814 88.467 27.239 34.906 23.69 58.483 59.511 66.379 100.943 7.897 41.429-0.801 83.432-24.492 118.339-23.69 34.906-59.511 58.483-100.943 66.379-9.958 2.06-20.029 2.977-29.984 2.977zM263.279 426.516l-22.431 33.42 606.683 415.671 22.431-33.42zM644.284 355.23699999999997l270.861 287.449 29.154-27.471-270.861-287.449-29.154 27.471zM929.703 608.9449999999999c-8.585 0-16.593 5.607-19.228 14.306l-69.24 231.182c-3.203 10.643 2.861 21.746 13.389 24.95 10.643 3.203 21.746-2.861 24.95-13.389l69.24-231.182c3.203-10.643-2.861-21.746-13.389-24.95-1.945-0.687-3.891-0.915-5.722-0.915zM689.364 608.9449999999999c-7.439 0-14.534 4.12-17.967 11.216l-37.766 77.48c-4.806 9.958-0.687 21.974 9.155 26.781 9.958 4.806 21.974 0.687 26.781-9.155l37.766-77.48c4.806-9.958 0.687-21.974-9.155-26.781-2.861-1.374-5.837-2.06-8.814-2.06zM138.303-99.481c-35.249 0-63.976 28.726-63.976 63.976s28.726 63.976 63.976 63.976 63.976-28.726 63.976-63.976-28.61-63.976-63.976-63.976zM138.303-11.583999999999946c-13.161 0-23.919-10.759-23.919-23.919s10.759-23.919 23.919-23.919c13.161 0 23.919 10.759 23.919 23.919s-10.643 23.919-23.919 23.919z"  horiz-adv-x="1024" />

    
    <glyph glyph-name="gooded" unicode="&#59040;" d="M896.8 345.6c20.8 32 28 62.4 21.6 89.6-7.2 28-28 48.8-44 58.4-13.6 8-29.6 12-45.6 12L703.2 505.6c-19.2 0-36.8 9.6-47.2 24.8-10.4 16-12.8 35.2-4.8 52.8 15.2 34.4 21.6 85.6 22.4 104 0 59.2-14.4 100.8-41.6 120-29.6 21.6-67.2 12-78.4 8-26.4-8-32.8-32.8-40.8-82.4-1.6-11.2-4-22.4-6.4-33.6C491.2 627.2 456 560 405.6 507.2c-27.2-28-56-52-86.4-69.6-10.4-5.6-20.8-11.2-32-15.2l0-411.2c40-1.6 72.8-12 109.6-24 56.8-18.4 127.2-40.8 259.2-40.8l1.6 0c66.4 0 115.2 15.2 141.6 43.2 24.8 26.4 24 56.8 24 59.2-1.6 12 4.8 23.2 15.2 29.6 20.8 12 32.8 27.2 36.8 43.2 6.4 25.6-8.8 51.2-9.6 52.8-9.6 14.4-5.6 32.8 8.8 43.2 21.6 14.4 33.6 29.6 36 46.4 4 22.4-11.2 42.4-12 44C889.6 320 889.6 334.4 896.8 345.6zM97.6 404l0-384c0-4.8-4.8-21.6 0-21.6L200-1.6000000000000227 200 409.6l-94.4 2.4C100.8 412 97.6 408.8 97.6 404z"  horiz-adv-x="1024" />

    
    <glyph glyph-name="grade" unicode="&#58891;" d="M830.166828 29.289706000000024c103.927001 88.802466 170.107827 219.941709 170.107827 366.351973 0 71.849369-16.302493 139.859768-44.768461 201.259055l1.746732 1.733598c57.21885 56.795553 57.21885 149.158159 0 205.953712-27.736564 27.496123-64.622002 42.649955-103.856283 42.649955l-0.035359 0c-35.07708 0-67.866942-12.695881-94.301287-34.871998-72.535333 42.371125-156.695675 67.128445-246.800361 67.128445-90.099634 0-174.295336-24.757321-246.800361-67.158753-26.469704 22.207436-59.254514 34.902306-94.336646 34.902306-39.230241 0-76.120729-15.153832-103.852242-42.649955-57.25825-56.795553-57.25825-149.192508 0-205.953712l1.742691-1.733598c-28.460917-61.398276-44.768461-129.409685-44.768461-201.259055 0-147.546802 67.137538-279.662961 172.49203-368.492705l-97.886684-97.052213c-12.709014-12.603947-12.709014-33.016159 0-45.611014 6.354507-6.301974 14.673961-9.454981 23.002507-9.454981 8.323495 0 16.648 3.153007 22.997456 9.454981l104.852395 103.948217c75.902514-48.261925 165.875867-76.640001 262.557316-76.640001 97.856376 0 188.916763 28.981199 265.387041 78.33925l106.595086-105.647466c6.354507-6.301974 14.678002-9.454981 23.002507-9.454981 8.323495 0 16.648 3.153007 23.006548 9.454981 12.709014 12.594855 12.709014 33.007067 0 45.611014L830.166828 29.289706000000024zM911.244881 758.972988c27.740605-27.505216 31.269427-70.027879 10.774375-101.43268-28.718532 44.008749-64.302761 83.103615-105.450466 115.730826C847.199736 788.018844 886.495643 783.481786 911.244881 758.972988zM113.271359 758.972988c24.717921 24.569413 64.084546 29.107481 94.711451 14.333505-41.147705-32.66257-76.762242-71.757436-105.476733-115.796493C81.980716 688.9440999999999 85.500446 731.441506 113.271359 758.972988zM512.260646-23.693142999999964c-233.205353 0-422.942444 188.121692-422.942444 419.335832 0 231.222222 189.738101 419.335832 422.942444 419.335832s422.947495-188.11361 422.947495-419.335832C935.207131 164.42854999999997 745.464989-23.693142999999964 512.260646-23.693142999999964zM674.929962 427.903177L544.795923 427.903177 544.795923 653.696286c0 17.826968-14.55172 32.256447-32.535278 32.256447-17.979517 0-32.531237-14.429479-32.531237-32.256447l0-258.054607c0-17.826968 14.55172-32.251396 32.531237-32.251396l162.670326 0c17.984568 0 32.535278 14.425438 32.535278 32.251396S692.91453 427.903177 674.929962 427.903177z"  horiz-adv-x="1024" />

    
    <glyph glyph-name="menu" unicode="&#58887;" d="M800 192l-576 0C204.8 192 192 179.2 192 160 192 140.8 204.8 128 224 128l576 0c19.2 0 32 12.8 32 32C832 179.2 819.2 192 800 192zM800 384l-576 0C204.8 384 192 371.2 192 352 192 332.8 204.8 320 224 320l576 0C819.2 320 832 332.8 832 352 832 371.2 819.2 384 800 384zM224 512l576 0C819.2 512 832 524.8 832 544 832 563.2 819.2 576 800 576l-576 0C204.8 576 192 563.2 192 544 192 524.8 204.8 512 224 512z"  horiz-adv-x="1024" />

    
    <glyph glyph-name="goods" unicode="&#58900;" d="M879.279884 879.306714L144.720116 879.306714c-31.375037 0-56.900473-25.525436-56.900473-56.900473L87.819643-45.029300000000035c0-31.375037 25.525436-56.900473 56.900473-56.900473l516.050667 0 275.408551 272.426001 0 651.908991C936.180357 853.781278 910.65492 879.306714 879.279884 879.306714zM190.031778 777.09458l643.936445 0 0-506.972185L613.530379 270.122395c-0.171716 0-0.340366-0.011243-0.511061-0.013288-0.170694 0.002044-0.339344 0.013288-0.511061 0.013288-28.224859 0-51.106067-22.881208-51.106067-51.106067l0-218.733967L190.031778 0.28236100000003717 190.031778 777.09458zM663.614325 167.910261l124.608857 0L663.614325 44.651625999999965 663.614325 167.910261zM290.199669 566.5375839999999l443.600662 0c28.224859 0 51.106067 22.881208 51.106067 51.106067s-22.881208 51.106067-51.106067 51.106067l-443.600662 0c-28.224859 0-51.106067-22.881208-51.106067-51.106067S261.97481 566.5375839999999 290.199669 566.5375839999999zM290.199669 411.481776l443.600662 0c28.224859 0 51.106067 22.881208 51.106067 51.106067s-22.881208 51.106067-51.106067 51.106067l-443.600662 0c-28.224859 0-51.106067-22.881208-51.106067-51.106067S261.97481 411.481776 290.199669 411.481776zM427.163929 360.069073l-136.96426 0c-28.224859 0-51.106067-22.881208-51.106067-51.106067s22.881208-51.106067 51.106067-51.106067l136.96426 0c28.224859 0 51.106067 22.881208 51.106067 51.106067S455.388787 360.069073 427.163929 360.069073z"  horiz-adv-x="1024" />

    
    <glyph glyph-name="calendar" unicode="&#58997;" d="M937.6 809.6l-169.6 0 0 44.8c0 22.4-19.2 41.6-41.6 41.6s-41.6-19.2-41.6-41.6l0-41.6-342.4 0 0 41.6c0 22.4-19.2 41.6-41.6 41.6-25.6 0-44.8-19.2-44.8-41.6l0-41.6-169.6 0c-48-3.2-86.4-41.6-86.4-86.4l0-768c0-48 38.4-86.4 86.4-86.4l854.4 0c48 0 86.4 38.4 86.4 86.4l0 768c-3.2 44.8-41.6 83.2-89.6 83.2zM937.6 726.4l0-86.4-169.6 0 0 86.4 169.6 0zM681.6 726.4l0-86.4-339.2 0 0 86.4 339.2 0zM86.4 726.4l169.6 0 0-86.4-169.6 0 0 86.4zM86.4-41.6l0 595.2 854.4 0 0-598.4-854.4 0z"  horiz-adv-x="1028" />

    
    <glyph glyph-name="coupon" unicode="&#58958;" d="M703.570083 563.487907L421.242973 563.487907l0-44.555775c0-4.776793-3.886517-8.66331-8.66331-8.66331-4.776793 0-8.66331 3.886517-8.66331 8.66331l0 44.555775-83.485413 0c-24.766057 0-44.914956-21.314445-44.914956-47.51313l0-51.995211 3.63683-1.632173c12.895705-5.78782 23.635303-14.795984 31.922037-26.771737 10.148128-14.666024 15.511275-32.500205 15.511275-51.574632 0-19.075451-5.364171-36.909631-15.511275-51.574632-8.287757-11.978822-19.027355-20.985964-31.922037-26.77276l-3.637854-1.632173 0-51.996235c0-26.198685 20.148899-47.512107 44.914956-47.512107l89.237417 0-4.757351 9.029654c-0.660032 1.252527-0.994654 2.608407-0.994654 4.02978l0 19.310811c0 4.776793 3.886517 8.66331 8.66331 8.66331 4.777817 0 8.66331-3.886517 8.66331-8.66331l0-19.310811c0-1.421372-0.334621-2.777253-0.994654-4.028757l-4.761444-9.030677 288.082184 0c24.766057 0 44.915979 21.314445 44.915979 47.512107l0 51.995211-3.63683 1.632173c-12.892635 5.786797-23.632233 14.793938-31.922037 26.77276-10.148128 14.666024-15.511275 32.500205-15.511275 51.575656 0 19.076474 5.364171 36.910655 15.511275 51.576679 8.289804 11.978822 19.029402 20.985964 31.922037 26.771737l3.63683 1.632173 0 51.994188C748.486062 542.173462 728.33614 563.487907 703.570083 563.487907zM421.243997 305.15221099999997c0-4.776793-3.886517-8.66331-8.664334-8.66331-4.777817 0-8.66331 3.886517-8.66331 8.66331l0 38.621623c0 4.776793 3.886517 8.66331 8.66331 8.66331 4.777817 0 8.664334-3.886517 8.664334-8.66331L421.243997 305.15221099999997zM421.243997 412.042683c0-4.776793-3.886517-8.66331-8.664334-8.66331-4.777817 0-8.66331 3.886517-8.66331 8.66331l0 38.620599c0 4.776793 3.886517 8.66331 8.66331 8.66331 4.777817 0 8.664334-3.886517 8.664334-8.66331L421.243997 412.042683zM611.859335 354.313887c4.776793 0 8.66331-3.886517 8.66331-8.66331 0-4.776793-3.886517-8.66331-8.66331-8.66331l-39.791262 0 0-32.645514c0-4.776793-3.886517-8.66331-8.664334-8.66331s-8.66331 3.886517-8.66331 8.66331l0 32.646538-39.792285 0c-4.776793 0-8.66331 3.886517-8.66331 8.66331 0 4.776793 3.886517 8.66331 8.66331 8.66331l39.792285 0 0 31.015388-39.792285 0c-4.776793 0-8.66331 3.886517-8.66331 8.66331 0 4.776793 3.886517 8.66331 8.66331 8.66331l39.792285 0 0 19.36607-36.205597 37.259602c-3.328815 3.426029-3.248997 8.921183 0.177032 12.251022 1.626034 1.579985 3.76986 2.449795 6.03546 2.449795 2.361791 0 4.570085-0.933255 6.215562-2.626827l32.642444-33.593096 32.642444 33.592073c1.645476 1.693572 3.852748 2.625804 6.215562 2.625804 2.266623 0 4.409426-0.86981 6.034437-2.448772 1.659803-1.613754 2.593058-3.776 2.625804-6.089695 0.032746-2.313695-0.837064-4.501524-2.448772-6.161327l-36.606733-37.673018 0-18.952654 39.791262 0c4.777817 0 8.664334-3.886517 8.664334-8.66331s-3.886517-8.66331-8.664334-8.66331l-39.791262 0 0-31.015388L611.859335 354.313887zM830.077336 895.978511L193.922664 895.978511c-107.088994 0-193.901175-86.813205-193.901175-193.901175l0-636.153648c0-107.088994 86.812181-193.901175 193.901175-193.901175l636.153648 0c107.088994 0 193.901175 86.813205 193.901175 193.901175L1023.977487 702.0773360000001C1023.978511 809.166329 937.165306 895.978511 830.077336 895.978511zM765.81166 457.674976c0-3.816932-2.556219-7.233752-6.217608-8.311293-13.190417-3.880377-24.400736-12.057617-32.41834-23.647583-8.134261-11.754718-12.43317-26.180266-12.43317-41.717124 0-15.537881 4.298909-29.963429 12.43317-41.717124 8.017604-11.588943 19.2269-19.766183 32.41834-23.64656 3.660366-1.076518 6.217608-4.494361 6.217608-8.311293l0-58.299801c0-35.752272-27.921933-64.838727-62.241576-64.838727L320.429917 187.185472c-34.320667 0-62.241576 29.086455-62.241576 64.838727l0 58.300824c0 3.815909 2.557242 7.232728 6.217608 8.31027 13.189394 3.880377 24.399713 12.057617 32.42141 23.647583 8.132214 11.754718 12.4301 26.179242 12.4301 41.7161 0 15.535835-4.298909 29.960359-12.4301 41.715077-8.020674 11.589966-19.230993 19.767206-32.42141 23.647583-3.660366 1.077541-6.217608 4.495384-6.217608 8.311293l0 58.300824c0 35.752272 27.921933 64.839751 62.2426 64.839751l383.139144 0c34.320667 0 62.241576-29.087479 62.241576-64.839751L765.81166 457.674976z"  horiz-adv-x="1024" />

    
    <glyph glyph-name="bean" unicode="&#58892;" d="M366.31936 584.87936c0 0 177.27488-92.03072 326.95424-57.28 0 0 302.43456 96.91904 290.21568-249.31584 0 0-56.37504-409.30944-594.55104-269.67424 0 0-404.05888 140.89984-299.264 511.74912 0 0 30.944 75.56608 115.2 73.0304 0 0-112.21504 117.82528-10.9504 227.13984C247.8592 878.9888 558.88896 898.80832 548.84352 614.10944c0 0-257.55008 10.94912-340.80512 167.59936 0 0-52.66432-31.4944 36.38016-187.32544 0.0896-0.1792 46.96576 13.93536 121.89568-9.504L366.31936 584.87936zM366.31936 584.87936"  horiz-adv-x="1024" />

    
    <glyph glyph-name="share" unicode="&#59188;" d="M801.983487 578.014762 613.984742 578.014762l0-60.068074 186.576349 0 0-520.587586L223.438908-2.640897 223.438908 517.946688l184.087669 0 0 60.068074L222.016513 578.014762c-32.134885 0-58.280358-26.304086-58.280358-58.636468L163.736155-4.072503c0-32.332383 26.14445-58.636468 58.280358-58.636468l579.965951 0c32.134885 0 58.279335 26.304086 58.279335 58.636468L860.261799 519.378294C860.262822 551.710676 834.118372 578.014762 801.983487 578.014762zM482.149135 715.727217 482.149135 236.79638 541.851888 236.79638 541.851888 715.727217 608.582709 648.586051 650.799206 691.060421 512.001023 830.709995 373.200794 691.060421 415.417291 648.586051Z"  horiz-adv-x="1024" />

    
    <glyph glyph-name="face" unicode="&#58898;" d="M512-72.448C260.32-72.448 55.584 132.32 55.584 384 55.584 635.648 260.32 840.416 512 840.416c251.68 0 456.448-204.736 456.448-456.416C968.416 132.32 763.68-72.448 512-72.448zM512 792.416C286.816 792.416 103.584 609.184 103.584 384c0-225.216 183.232-408.448 408.416-408.448 225.216 0 408.448 183.232 408.448 408.448C920.416 609.184 737.216 792.416 512 792.416zM512 114.976c-89.472 0-174.176 39.2-232.48 107.52-8.64 10.048-7.392 25.216 2.688 33.824 9.984 8.64 25.184 7.392 33.824-2.688 49.152-57.6 120.608-90.656 195.968-90.656 75.392 0 146.848 33.056 196 90.656 8.672 10.08 23.808 11.328 33.824 2.688 10.08-8.608 11.328-23.744 2.688-33.824C686.208 154.176 601.472 114.976 512 114.976zM368.064 390.976 362.24 390.976c-21.312 0-38.624 17.312-38.624 38.624l0 69.152c0 21.28 17.312 38.592 38.624 38.592l5.824 0c21.28 0 38.592-17.312 38.592-38.592l0-69.152C406.656 408.288 389.344 390.976 368.064 390.976zM661.76 390.976l-5.824 0c-21.28 0-38.592 17.312-38.592 38.624l0 69.152c0 21.28 17.312 38.592 38.592 38.592l5.824 0c21.28 0 38.592-17.312 38.592-38.592l0-69.152C700.352 408.288 683.04 390.976 661.76 390.976z"  horiz-adv-x="1024" />

    
    <glyph glyph-name="chat" unicode="&#58947;" d="M105.96131-78.42183799999998c-9.549493 0-18.228153 5.206582-22.651906 13.58746-3.13541 5.931083-3.753487 12.723789-1.744737 19.134802 2.026146 6.455015 6.462179 11.741415 12.490476 14.879896l106.499569 55.41203c43.343157 22.51683 90.672092 34.420951 136.863111 34.420951 19.760043 0 39.294958-2.173502 58.06444-6.461155 38.046524-8.667404 77.474512-13.06148 117.196189-13.061481 247.657496 0 449.140347 170.153308 449.140347 379.301746 0 209.150484-201.483874 379.306862-449.140347 379.306862S63.538105 627.942895 63.538105 418.792411c0-82.483596 30.81482-160.847361 89.113597-226.619344 4.425799-5.018294 6.635117-11.507078 6.202259-18.247596-0.433882-6.752798-3.466961-12.921287-8.541537-17.3696-4.631484-4.041036-10.614755-6.27696-16.826224-6.27696a25.621541 25.621541 0 0 0-19.174711 8.606005c-66.506716 75.175143-101.665471 165.05315-101.665471 259.906471 0 236.984413 224.313835 429.786557 500.032434 429.786557 275.719622 0 500.034481-192.802144 500.034481-429.786557 0-236.986459-224.314859-429.789627-500.034481-429.789626-43.591821 0-86.819344 4.834098-128.48121 14.366196-15.20633 3.465938-31.036877 5.222955-47.060828 5.222954-38.011732 0-77.07133-9.911744-112.954585-28.66383l-106.444311-55.387471c-3.799536-2.00261-7.634888-2.961448-11.776208-2.961448zM310.370817 362.97105799999997c-30.987758 0-56.19793 25.041326-56.19793 55.820329s25.210172 55.821353 56.19793 55.821354c30.985712 0 56.193837-25.041326 56.193836-55.821354s-25.208125-55.82033-56.193836-55.820329zM513.765203 362.97105799999997c-30.985712 0-56.193837 25.041326-56.193836 55.820329s25.208125 55.821353 56.193836 55.821354 56.193837-25.041326 56.193837-55.821354-25.208125-55.82033-56.193837-55.820329zM717.158566 362.97105799999997c-30.985712 0-56.193837 25.041326-56.193836 55.820329s25.208125 55.821353 56.193836 55.821354c30.984688 0 56.192813-25.041326 56.192814-55.821354s-25.207102-55.82033-56.192814-55.820329z"  horiz-adv-x="1024" />

    
    <glyph glyph-name="sport" unicode="&#59021;" d="M871.424 74.75199999999995H754.688c-8.192 0-15.36-7.168-15.36-15.36s7.168-15.36 15.36-15.36h116.736c8.192 0 15.36 7.168 15.36 15.36s-7.168 15.36-15.36 15.36zM694.272 74.75199999999995H441.344l390.144 420.864v5.12c0 1.024 3.072 37.888-20.48 61.44-14.336 14.336-33.792 20.48-58.368 18.432-20.48 7.168-53.248 40.96-80.896 70.656-41.984 44.032-75.776 79.872-105.472 71.68-10.24-3.072-14.336-12.288-20.48-24.576-3.072-7.168-7.168-15.36-12.288-23.552-33.792-49.152-87.04-107.52-122.88-129.024-1.024 1.024-3.072 2.048-4.096 3.072-21.504 18.432-58.368 48.128-84.992 28.672-17.408-13.312-16.384-35.84-15.36-64.512 1.024-17.408 2.048-37.888-1.024-60.416v-2.048c-11.264-88.064-22.528-178.176-49.152-217.088-14.336-20.48-28.672-26.624-45.056-33.792-13.312-5.12-28.672-12.288-41.984-26.624-33.792-35.84-32.768-88.064-32.768-90.112v-7.168l6.144-4.096 4.096-4.096c8.192-8.192 22.528-22.528 43.008-22.528h502.784c8.192 0 15.36 7.168 15.36 15.36s-5.12 14.336-13.312 14.336z m96.256 465.92c9.216-9.216 11.264-24.576 11.264-31.744L573.44 262.144c2.048 22.528 4.096 50.176 4.096 73.728 0 31.744 104.448 144.384 176.128 214.016 16.384 2.048 28.672-1.024 36.864-9.216zM399.36 74.75199999999995H191.488c-8.192 0-15.36 7.168-21.504 13.312l-1.024 1.024c1.024 12.288 5.12 41.984 23.552 62.464 9.216 9.216 19.456 14.336 30.72 19.456 18.432 8.192 38.912 16.384 58.368 44.032 30.72 45.056 43.008 135.168 54.272 231.424v2.048c3.072 25.6 2.048 48.128 1.024 65.536-1.024 16.384-2.048 35.84 3.072 38.912 2.048 2.048 11.264 2.048 47.104-27.648 6.144-5.12 11.264-9.216 14.336-11.264l7.168-4.096 7.168 3.072c47.104 21.504 111.616 97.28 143.36 143.36 7.168 10.24 11.264 20.48 15.36 27.648 1.024 2.048 2.048 5.12 3.072 7.168 14.336-3.072 51.2-41.984 71.68-63.488 28.672-29.696 56.32-58.368 80.896-72.704-48.128-47.104-175.104-175.104-175.104-221.184 0-33.792-4.096-75.776-6.144-99.328L399.36 74.75199999999995z"  horiz-adv-x="1024" />

    
    <glyph glyph-name="rank" unicode="&#58885;" d="M132.526041 389.975266h204.764327v-517.975266H132.526041zM409.528654 582.789061h204.764326v-710.789061H409.528654zM686.709632 896h204.764327v-1024H686.709632z"  horiz-adv-x="1024" />

    
    <glyph glyph-name="total-time" unicode="&#58881;" d="M511.488 849.92C254.464 849.92 45.056 641.024 45.056 384s208.896-465.92 466.432-465.92c257.024 0 465.92 208.896 465.92 465.92S768.512 849.92 511.488 849.92z m0-829.44c-200.192 0-363.52 162.816-363.52 363.008s162.816 363.008 363.52 363.008c200.192 0 363.008-162.816 363.008-363.008S711.68 20.480000000000018 511.488 20.480000000000018zM716.288 410.624H540.672V606.72c0 23.04-18.944 42.496-42.496 42.496-23.04 0-42.496-18.944-42.496-42.496v-238.592c0-23.04 18.944-42.496 42.496-42.496h218.112c24.064 0 42.496 18.944 42.496 42.496 0.512 23.552-18.432 42.496-42.496 42.496z"  horiz-adv-x="1024" />

    
    <glyph glyph-name="packet" unicode="&#58889;" d="M959.418123 607.709061c0 74.131371-60.09468 134.225027-134.225027 134.225027L198.806905 741.934089c-74.131371 0-134.225027-60.09468-134.225027-134.225027L64.581877 160.29093899999998c0-74.131371 60.09468-134.225027 134.225027-134.225027l626.385167 0c74.131371 0 134.225027 60.09468 134.225027 134.225027l0 89.484034L735.709061 249.77497300000005c-74.131371 0-134.225027 60.09468-134.225027 134.225027s60.09468 134.225027 134.225027 134.225027l223.709061 0L959.418123 607.709061zM735.709061 383.99693m-67.112514 0a65.584 65.584 0 1 1 134.225027 0 65.584 65.584 0 1 1-134.225027 0Z"  horiz-adv-x="1024" />

    
    <glyph glyph-name="more" unicode="&#59126;" d="M858.816 384m-101.184 0a101.184 101.184 0 1 1 202.368 0 101.184 101.184 0 1 1-202.368 0ZM512 384m-101.184 0a101.184 101.184 0 1 1 202.368 0 101.184 101.184 0 1 1-202.368 0ZM165.184 384m-101.184 0a101.184 101.184 0 1 1 202.368 0 101.184 101.184 0 1 1-202.368 0Z"  horiz-adv-x="1024" />

    
    <glyph glyph-name="club" unicode="&#59781;" d="M176.115717 486.147116c-12.282942 0-22.217675-9.754101-22.217675-21.856412v-309.241136c0-134.028576 99.889222-235.182219 232.111483-235.182219h64.304816c118.313636 0 217.480332 79.477862 241.684953 185.147292h24.746517c84.535544 0 153.175516 68.45934 153.175516 152.45299s-68.820603 152.45299-153.175516 152.45299h-19.14694V464.290704c0 12.102311-9.934733 21.856412-22.217675 21.856412H176.115717z m540.630094-337.600282h-19.14694c0 2.167578 0.180632 4.335156 0.180632 6.502734v211.33886h19.146939c59.96966 0 108.920797-48.770506 108.920797-108.920797s-48.951138-108.920797-109.101428-108.920797z m-518.412419 6.502734V442.614923h455.01076v-287.565355c0-105.66943-91.038278-191.650026-203.029811-191.650027h-64.304816c-106.933851 0-187.676133 82.367966-187.676133 191.650027z m320.259658 476.686541c22.578938 22.217675 33.958723 46.964191 33.778091 73.697654-0.180632 43.712824-32.694302 75.323337-33.958723 76.587758-8.850944 8.489681-22.75957 8.309049-31.429881-0.361263-8.489681-8.670312-8.489681-22.398307 0.361263-30.887988 7.405892-7.22526 42.629035-46.241665-0.180632-88.328806-24.385253-23.843359-35.765038-49.131769-33.59746-75.142705 3.070736-37.21009 32.874934-59.427765 36.306933-61.956607 3.973893-2.709473 8.489681-4.154525 13.005468-4.154524 6.863997 0 13.727994 3.070736 18.06315 9.031575 7.22526 9.754101 5.057682 23.301464-4.87705 30.346093-0.541895 0.361263-16.979361 12.824837-18.243782 30.526724-0.903158 12.644205 5.96084 26.191568 20.772623 40.642089z m-156.246252 27.817251c27.455989 26.914094 41.364615 57.079555 41.183983 89.231964-0.361263 53.105662-39.738931 91.399541-41.364614 93.025225-8.850944 8.309049-22.75957 8.309049-31.429882-0.361263-8.489681-8.670312-8.489681-22.398307 0.361263-30.887988 0.180632-0.180632 27.997883-27.63662 27.997883-62.317869 0-20.050097-9.392838-39.5583-28.178514-57.802081-29.623567-29.081672-43.351561-59.608397-40.82272-90.677016 3.61263-45.519139 41.906509-73.155759 43.532192-74.239548 3.973893-2.709473 8.489681-4.154525 13.005468-4.154525 6.863997 0 13.727994 3.070736 18.063151 9.031576 7.22526 9.754101 5.057682 23.301464-4.877051 30.346092-0.541895 0.361263-23.662727 17.701887-25.469042 42.809667-1.264421 17.701887 8.128418 36.487564 27.997883 55.995766z"  horiz-adv-x="1024" />

    
    <glyph glyph-name="mime" unicode="&#58890;" d="M512 274.86679300000003c125.761567 0 241.904267 109.90067 254.89997 270.556211 13.609673 168.125512-98.030579 326.734486-254.89997 326.734486-156.767063 0-268.509643-158.608974-254.89997-326.734486C270.198061 384.665134 386.238433 274.86679300000003 512 274.86679300000003L512 274.86679300000003zM509.748776 235.77735600000005C228.24343 235.77735600000005 0.051164 123.83011899999997 0.051164-14.210852000000045c0-47.173379 43.387229-65.387829 171.093035-79.202158 98.644549-10.64215 216.526831-10.64215 340.855801-10.64215 127.398821 0 253.774358 0 342.595383 10.64215 125.761567 15.04227 169.353453 32.02878 169.353453 79.202158C1023.948836 123.83011899999997 791.254122 235.77735600000005 509.748776 235.77735600000005L509.748776 235.77735600000005z"  horiz-adv-x="1024" />

    
    <glyph glyph-name="setting" unicode="&#58939;" d="M943.153694 453.728084l-116.457362 19.025309a329.48106 329.48106 0 0 1-28.195156 68.050886l67.970045 96.883561c5.012154 7.140631 4.166903 16.851806-2.003634 23.022342l-75.999928 75.964113a17.927301 17.927301 0 0 1-12.69923 5.257747 17.910928 17.910928 0 0 1-10.483772-3.382027l-95.457072-68.607564a326.795904 326.795904 0 0 1-68.534909 28.501124L580.965721 814.452729c-1.509377 8.586562-8.974395 14.856359-17.696034 14.856359H455.794907c-8.801457 0-16.311501-6.377244-17.721617-15.063067L419.237293 698.867224c-24.037463-6.827499-47.050596-16.276708-68.671009-28.205389l-95.176686 67.997674a17.945721 17.945721 0 0 1-10.441817 3.345188c-4.631484 0-9.230222-1.782599-12.706393-5.258771l-75.999928-75.965135c-6.16235-6.161327-7.014764-15.862269-2.021029-23.0029l66.99995-95.81523a330.863547 330.863547 0 0 1-28.734438-69.102844L77.57275 453.718875c-8.668427-1.437745-15.018042-8.936533-15.018042-17.72264v-107.464547c0-8.713452 6.251378-16.168238 14.829753-17.686825l114.90296-20.36277a327.172481 327.172481 0 0 1 28.717042-69.102844l-67.817572-94.853322c-5.102205-7.150864-4.303003-16.932648 1.904373-23.148209l75.973322-76.044954a17.933441 17.933441 0 0 1 12.710487-5.26798c3.584642 0 7.186679 1.070378 10.301623 3.25616l95.959515 67.206658a328.019779 328.019779 0 0 1 68.814272-28.429493l19.230994-115.504663c1.437745-8.668427 8.936533-15.019065 17.712407-15.019065h107.47478c8.704243 0 16.160051 6.251378 17.686824 14.829753l20.597107 116.061342c23.938202 6.961552 46.8971 16.572444 68.500117 28.67304l96.642061-67.808362a17.885346 17.885346 0 0 1 10.308787-3.263323 17.948791 17.948791 0 0 1 12.712532 5.266957l75.981509 76.044953c6.224772 6.224772 7.014764 16.051581 1.877767 23.192212l-68.930929 95.725178a326.57487 326.57487 0 0 1 28.115338 68.087725l116.600625 20.452821c8.595772 1.509377 14.865569 8.974395 14.865569 17.696034V435.996235c-0.001023 8.803503-6.386454 16.312524-15.072277 17.731849z m-25.860994-105.908098l-97.604992-17.119913a40.932248 40.932248 0 0 1-32.281218-29.057802 286.299585 286.299585 0 0 0-24.593117-59.558468 40.934295 40.934295 0 0 1 2.614547-43.706431l57.517995-79.875188-48.539507-48.579416-80.844259 56.72391a40.905642 40.905642 0 0 1-23.51353 7.425109 40.904619 40.904619 0 0 1-19.999496-5.219885c-18.856463-10.561543-39.019689-18.999726-59.927881-25.081235a40.932248 40.932248 0 0 1-28.871561-32.151257l-17.234523-97.111758h-68.752874l-16.036231 96.313579a40.931225 40.931225 0 0 1-29.141714 32.637328 287.570531 287.570531 0 0 0-60.23078 24.883737 40.888246 40.888246 0 0 1-19.815301 5.118578 40.904619 40.904619 0 0 1-23.484877-7.405667l-80.165808-56.145742-48.589648 48.635697 56.502875 79.027891a40.931225 40.931225 0 0 1 2.459005 43.729968 286.868543 286.868543 0 0 0-25.126261 60.462046 40.934295 40.934295 0 0 1-32.203446 29.020964l-95.943142 17.002233v68.749803l95.724155 15.945157a40.932248 40.932248 0 0 1 32.602535 29.028127 290.49821 290.49821 0 0 0 25.180496 60.558238 40.931225 40.931225 0 0 1-2.229784 43.348274l-55.961546 80.030731 48.619324 48.596811 79.349209-56.69014a40.901549 40.901549 0 0 1 23.798009-7.626701 40.893362 40.893362 0 0 1 19.770276 5.092995c18.850323 10.400884 39.064714 18.700921 60.080353 24.669866a40.932248 40.932248 0 0 1 29.214369 32.779567l15.689331 96.104825h68.654636l16.996092-96.997148a40.930201 40.930201 0 0 1 28.988218-32.267914 286.443871 286.443871 0 0 0 59.954487-24.931832 40.887222 40.887222 0 0 1 19.906376-5.16872c8.40953 0 16.789385 2.588965 23.893176 7.694239l79.616292 57.223283 48.548716-48.526203-56.889685-81.089853a40.933271 40.933271 0 0 1-2.315741-43.310412 289.077861 289.077861 0 0 0 24.692378-59.600423 40.932248 40.932248 0 0 1 32.727379-29.045523l97.195669-15.878642v-68.656683z m-241.039775 34.538631c0-22.428825-4.431939-44.184315-13.173021-64.661696-4.440126-10.394744-16.46602-15.222703-26.858718-10.787693-10.394744 4.438079-15.22475 16.46295-10.787694 26.858717 6.560416 15.368012 9.887184 31.716352 9.887185 48.590672 0 68.308759-55.573713 123.882472-123.882472 123.882472-68.308759 0-123.883495-55.573713-123.883495-123.882472s55.573713-123.882472 123.883495-123.882472c17.153682 0 33.749662 3.433192 49.327452 10.20441 10.363022 4.507664 22.421662-0.243547 26.927279-10.610662 4.505617-10.366092-0.24457-22.421662-10.610662-26.92728-20.756743-9.022491-42.842761-13.597693-65.644069-13.597692-90.879823 0-164.815743 73.935919-164.815743 164.814719 0 90.879823 73.935919 164.81472 164.815743 164.81472s164.81472-73.936943 164.81472-164.815743z"  horiz-adv-x="1024" />

    
    <glyph glyph-name="history_run" unicode="&#58882;" d="M512 896C229.12 896 0 666.88 0 384s229.12-512 512-512 512 229.12 512 512S794.88 896 512 896z m-23.04-140.8c56.32 0 101.12-46.08 101.12-101.12 0-56.32-46.08-101.12-101.12-101.12-56.32 0-101.12 46.08-101.12 101.12 0 55.04 46.08 101.12 101.12 101.12zM290.56 547.8399999999999c10.24 11.52 28.16 11.52 38.4 1.28l60.16-56.32 66.56 17.92c14.08 3.84 29.44-5.12 33.28-19.2 3.84-14.08-5.12-29.44-19.2-33.28L389.12 435.2c-2.56 0-5.12-1.28-7.68-1.28-6.4 0-14.08 2.56-19.2 7.68l-71.68 66.56c-10.24 10.24-10.24 28.16 0 39.68zM780.8 53.75999999999999c-5.12-10.24-14.08-15.36-25.6-15.36-3.84 0-7.68 1.28-11.52 2.56l-175.36 80.64c-10.24 5.12-15.36 14.08-15.36 25.6v97.28c0 15.36 12.8 28.16 28.16 28.16s28.16-12.8 28.16-28.16v-80.64L768 90.88c12.8-6.4 19.2-23.04 12.8-37.12z m33.28 405.76c-7.68-12.8-24.32-16.64-38.4-8.96L674.56 512l-102.4-24.32 37.12-157.44c3.84-14.08-5.12-28.16-17.92-32L431.36 243.20000000000005l-57.6-185.6c-3.84-11.52-15.36-19.2-26.88-19.2-2.56 0-5.12 0-7.68 1.28-14.08 5.12-23.04 20.48-17.92 34.56l61.44 198.4c2.56 8.96 8.96 15.36 17.92 17.92L550.4 340.48l-38.4 160c-1.28 7.68 0 14.08 3.84 20.48s10.24 10.24 16.64 12.8l139.52 33.28c6.4 1.28 14.08 0 20.48-2.56l111.36-66.56c12.8-8.96 17.92-25.6 10.24-38.4zM488.96 608c25.6 0 46.08 20.48 46.08 46.08s-20.48 46.08-46.08 46.08-46.08-20.48-46.08-46.08 20.48-46.08 46.08-46.08z"  horiz-adv-x="1024" />

    
    <glyph glyph-name="image" unicode="&#58911;" d="M0 736.300519v-706.858118c0-65.947813 13.317617-78.561133 78.561133-78.561133h889.975347c64.667273 0 78.561133 12.037077 78.561133 78.561133V736.300519c0 64.411165-12.293185 78.561133-78.561133 78.561133h-889.975347C13.573725 814.861652 0 803.592899 0 736.300519m923.909659-601.853832h-800.337542C211.289111 261.66834300000005 366.810702 474.237994 406.315364 474.237994c38.416202 0 168.070884-171.78445 226.719619-232.225941 0 0 75.42381 100.778503 115.248606 100.778503S922.629119 135.215011 923.909659 133.99849800000004m-235.107157 445.243781a96.616748 96.616748 0 1 0 96.616749-96.616748 96.488694 96.488694 0 0 0-96.616749 96.616748M491.151143 862.241634L337.998551 891.309894c-50.837441 9.668078-70.94192 6.4027-83.235105-29.06826z m721.392247-136.889733l-119.85855 22.729586v-719.343383c0-32.973907-2.176918-70.429704-28.235909-96.040505s-62.106193-26.955368-94.567884-26.955368H897.658588l153.664808-29.196314c63.514787-12.037077 79.393484-2.817188 91.814723 62.490356L1275.033745 633.409124c12.037077 63.258679 2.56108 79.457511-62.490355 91.814723"  horiz-adv-x="1279" />

    
    <glyph glyph-name="code" unicode="&#58883;" d="M122.548907 59.10527999999999v136.526507H25.1392v-168.997547c0-71.744853 58.149547-129.88416 129.88416-129.88416H317.371733v97.40288H187.4944c-35.87072 0.003413-64.945493 29.088427-64.945493 64.95232z m0 649.40032c0 35.87072 29.078187 64.94208 64.94208 64.94208h129.88416V870.8608H155.02336C83.288747 870.8608 25.1392 812.714667 25.1392 740.97664v-155.702613h97.409707V708.5056z m779.29472-649.40032c0-35.867307-29.078187-64.935253-64.948907-64.935253h-129.870507v-97.416534h162.34496c71.734613 0 129.890987 58.15296 129.890987 129.88416v168.997547h-97.41312v-136.52992h-0.003413zM869.36576 870.8608h-162.34496v-97.409707h129.870507c35.874133 0 64.948907-29.07136 64.948906-64.94208v-123.234986h97.41312V740.97664c0.003413 71.738027-58.15296 129.88416-129.887573 129.88416z m97.419947-438.35392H57.61024c-17.93024 0-32.47104-14.53056-32.47104-32.467627v-32.47104c0-17.933653 14.537387-32.467627 32.47104-32.467626h909.175467c17.926827 0 32.47104 14.533973 32.47104 32.467626v32.47104c0 17.937067-14.544213 32.467627-32.47104 32.467627z"  horiz-adv-x="1024" />

    
    <glyph glyph-name="sportTeam" unicode="&#59196;" d="M806.1 673.1c-59 0-145.5 19.8-262 94.7C468.6 816.3 395 832.2 331 832.2c-66.6 0-123-17.2-160.6-33V831.8h-50v-896h50V233.10000000000002c44.9 24.3 116.1 53.8 196.7 53.8 56.4 0 117.3-14.5 177.1-55.2 111.9-76.4 197.6-96.8 257.2-96.8 68.3 0 102.4 26.8 102.4 26.8V698c-0.1 0-31.5-24.9-97.7-24.9z m47.6-480.5c-12-4-29.4-7.7-52.4-7.7-28.5 0-59.7 5.7-92.8 17.1-42.7 14.6-88.5 38.5-136.2 71-62.2 42.4-131.2 63.9-205.3 63.9-77.6 0-146.7-23.8-196.6-47.7V744.3c8.1 4 18.3 8.6 30.2 13.1 29.5 11.3 76.1 24.8 130.5 24.8 65.1 0 127.7-19 186.1-56.5 105.9-68.1 203.2-102.6 289-102.6 16.6 0 32.5 1.3 47.6 3.9v-434.4z"  horiz-adv-x="1024" />

    
    <glyph glyph-name="find" unicode="&#58880;" d="M512 864c-265.091 0-480-214.909-480-480 0-265.113 214.909-480 480-480s480 214.887 480 480c0 265.091-214.909 480-480 480zM648.211 383.97799999999995c0-72.371-56.618-130.997-127.898-135.382l-164.749-142.231-21.449 12.414 54.59 208.146c-8.094 17.389-12.938 36.633-12.938 57.054 0 72.37 56.596 130.997 127.853 135.403l164.814 142.233 21.449-12.349-54.612-208.191c8.094-17.41 12.938-36.633 12.938-57.097zM450.08 384c0 0 0 0 0 0 0-34.197 27.723-61.92 61.92-61.92 34.197 0 61.92 27.723 61.92 61.92 0 0 0 0 0 0 0 0 0 0 0 0 0 34.197-27.723 61.92-61.92 61.92-34.197 0-61.92-27.723-61.92-61.92s0 0 0 0z"  horiz-adv-x="1024" />

    
    <glyph glyph-name="RMB" unicode="&#58993;" d="M512 896C229.376 896 0 666.624 0 384s229.376-512 512-512 512 229.376 512 512S794.624 896 512 896zM512 896C229.376 896 0 666.624 0 384s229.376-512 512-512 512 229.376 512 512S794.624 896 512 896z m204.8-496.64h-174.08v-87.04h138.24c18.432 0 33.28-14.848 33.28-33.28s-14.848-33.28-33.28-33.28h-138.24v-155.136c0-18.432-14.848-33.28-33.28-33.28s-33.28 14.848-33.28 33.28V245.76H343.04c-18.432 0-33.28 14.848-33.28 33.28s14.848 33.28 33.28 33.28h133.12V399.36H307.2c-18.432 0-33.28 14.848-33.28 33.28S288.768 465.92 307.2 465.92h133.12L296.96 620.0319999999999c-12.8 13.824-11.776 34.816 2.048 47.616 13.824 12.8 35.328 11.776 48.128-2.048l162.816-176.64L672.256 665.6c12.8 13.824 34.304 14.848 48.128 2.048s14.848-33.28 2.048-47.616L579.584 465.92H716.8c18.432 0 33.28-14.848 33.28-33.28s-15.36-33.28-33.28-33.28z"  horiz-adv-x="1024" />

    
    <glyph glyph-name="live" unicode="&#58899;" d="M392.533 89.6H160c-57.6 0-102.4 46.933-102.4 102.4V548.267c0 12.8 8.533 21.333 21.333 21.333s21.334-8.533 21.334-21.333V192c0-34.133 27.733-59.733 59.733-59.733h232.533c12.8 0 21.334-8.534 21.334-21.334S403.2 89.6 392.533 89.6zM665.6 89.6h-61.867c-12.8 0-21.333 8.533-21.333 21.333s8.533 21.334 21.333 21.334H665.6c21.333 0 40.533 19.2 40.533 42.666V625.067c0 23.466-19.2 42.666-42.666 42.666H142.933c-23.466 0-42.666-19.2-42.666-42.666v-85.334c0-12.8-8.534-21.333-21.334-21.333S57.6 526.933 57.6 539.733v85.334C57.6 672 96 710.4 142.933 710.4h520.534c46.933 0 85.333-38.4 85.333-85.333V172.8c0-44.8-36.267-83.2-83.2-83.2zM945.067 153.6c-2.134 0-6.4 0-8.534 2.133L729.6 241.067c-10.667 4.266-17.067 17.066-10.667 27.733s17.067 17.067 27.734 10.667L923.733 204.8V603.733L746.667 531.2c-10.667-4.267-23.467 0-27.734 10.667-4.266 10.666 0 23.466 10.667 27.733l206.933 85.333c6.4 2.134 14.934 2.134 19.2-2.133 6.4-4.267 8.534-10.667 8.534-17.067V172.8c0-6.4-4.267-12.8-8.534-17.067-2.133-2.133-6.4-2.133-10.666-2.133zM467.2 110.933a32 32 0 1 1 64 0 32 32 0 1 1-64 0zM324.267 576H187.733c-12.8 0-21.333-8.533-21.333-21.333s8.533-21.334 21.333-21.334h136.534c12.8 0 21.333 8.534 21.333 21.334S337.067 576 324.267 576z"  horiz-adv-x="1024" />

    
    <glyph glyph-name="logo" unicode="&#59360;" d="M854.06 515.1700000000001c6.34-16.79 10.56-34.28 14.38-51.79-0.49-0.7-0.97-1.4-1.45-2.11-2.23 18.38-7.65 36.23-12.93 53.9zM484.04 762.49c40.27 2.73 81-0.9 120.02-11.33 41.03-10.79 80.04-29 114.88-53.19 60.87-42.26 108.43-103.47 133.86-173.11 11.14-30.18 18.11-61.88 20.87-93.92-0.21-4.72 1.29-9.3 1.1-14.01-0.08-5.58-0.18-11.17-0.32-16.75-0.3 8.91 0.59 17.93-1.1 26.74-0.45 11.7-3.09 23.16-4.29 34.77-0.54-0.67-1.06-1.35-1.55-2.05 11.4-68.23 2.74-139.75-24.91-203.18-28.34-65.71-76.7-122.54-136.95-161.14-19.9-12.77-40.98-23.6-62.38-33.6-60.86-27.89-126.47-45.43-193.16-51.43-78.69-7.2-158.87 1.11-234.22 25.02 33 13.37 64.71 29.89 94.76 48.98 3.27 2.25 6.87 4.04 9.83 6.72-66.33 40.27-118.95 102.58-147.7 174.64-31.84 78.96-34.56 169.28-7.32 249.96 17.26 51.97 46.69 99.8 85.03 138.87 27.62 28.3 60.01 51.88 95.21 69.84 42.97 21.75 90.29 34.88 138.34 38.17m-86.47-95.08c-35.84-24.72-66.02-57.56-87.59-95.4-25.53-44.41-38.94-95.77-38.16-147 1.05-7.24-0.66-14.86 1.59-21.87 0.21-3.33-0.08-6.73 0.89-9.97 2.55-17.48 5.82-34.93 11.17-51.8 10.96-36.01 29.23-69.72 53.13-98.79 23.72-28.91 53.16-53.1 86.04-70.89 37-19.99 78.39-31.81 120.38-34.19 39.6-2.26 79.84 3.08 117.05 16.98-35.77-2.58-72.49 5.8-102.93 24.97-31.64 19.79-56.49 50.39-68.83 85.66-15.8 44.03-11.78 94.74 11 135.63 18.31 33.24 48.03 60.18 83.05 74.89 36.24 14.03 75.15 20.88 113.99 20.89 8.3-0.34 16.74 3.9 21 11.1 3.75 5.8 3.62 12.96 4.95 19.51 0.43 4.69 2.68 9.8 0.02 14.2-1.71 3.4-5.42 5.45-9.2 5.21-82.52 3.77-166.12-19.11-234.98-64.81-8.18-5.01-15.49-11.32-23.96-15.86-17.89-10.15-38.69-14.61-59.18-13.83-16.16 1.33-31.68 9.58-41.61 22.43-6.92 8.76-11.27 19.48-12.42 30.58-2.74 29.24 3.03 59.24 16.58 85.31 13.55 26.41 34.87 48.77 60.57 63.62 2.44 1.49 5.32 2.52 7.15 4.83 1.42 2.88 0.92 6.82-1.48 9.02-8.1 6.07-20.33 5.98-28.22-0.42m3.88-93.1c-19.67-4.34-35.21-22.3-36.65-42.39-0.88-7.08 1.41-13.94 3.43-20.61 4.51-13.31 15.34-24.29 28.65-28.82 12.49-4.4 26.91-3.33 38.49 3.16 9.76 5.28 17.59 14.06 21.64 24.4 4.44 10.85 4.42 23.39 0.38 34.36-4.14 11.33-12.85 20.94-23.69 26.25-9.86 5.01-21.51 6.11-32.25 3.65m452.61-59.14c5.28-17.67 10.7-35.52 12.93-53.9 0.48 0.71 0.96 1.41 1.45 2.11-3.82 17.51-8.04 35-14.38 51.79z"  horiz-adv-x="1024" />

    
    <glyph glyph-name="comment" unicode="&#58893;" d="M266.699072-107.87223600000004l-10.063882 213.857494H188.703986c-103.154791 0-188.697789 83.027027-188.697789 188.697789V707.3022109999999c0 103.154791 83.027027 188.697789 188.697789 188.697789h691.891892c103.154791 0 188.697789-85.542998 188.697788-188.697789v-412.619164c0-103.154791-83.027027-188.697789-188.697788-188.697789h-244.04914l-369.847666-213.857494zM191.219956 818.004914C128.320693 818.004914 78.001283 767.685504 78.001283 704.786241v-412.619165c0-62.899263 50.31941-113.218673 113.218673-113.218673H329.598335l7.547911-161.022113 279.272727 161.022113h264.176905c62.899263 0 113.218673 50.31941 113.218673 113.218673V704.786241c0 62.899263-50.31941 113.218673-113.218673 113.218673H191.219956z"  horiz-adv-x="1084" />

    
    <glyph glyph-name="good" unicode="&#58894;" d="M729.074-65.13099999999997H414.096c-20.687 0-37.453 17.069-37.453 38.104 0 21.064 16.738 38.104 37.453 38.104h314.978c2.272 0 5.651 0.496 9.22 2.921 3.382 2.317 5.112 5.432 5.816 7.61l135.962 314.645c8.655 19.658 6.79 42.115-4.676 60.064-11.52 17.963-30.962 28.688-52.001 28.688l-197.779 0.054c-16.577 0-31.045 10.988-35.803 27.103-4.651 16.089 1.46 33.46 15.25 42.695 32.126 21.588 63.331 140.283 37.642 219.083-14.44 44.582-37.642 43.259-47.674 42.694l-10.95-0.096c-14.658 0-28.449-5.805-38.888-16.364-10.33-10.588-16.008-24.65-16.008-39.648v-51.972c0-60.561-23.23-117.509-65.197-160.286-37.182-37.994-85.288-60.836-137.045-65.496v-413.845c0-19.8-7.517-38.326-21.255-52.277-13.765-14.035-32.07-21.782-51.325-21.782h-120.66c-18.686 0-36.236 7.444-49.324 20.871-13.169 13.426-20.335 31.294-20.335 50.208V420.18c0 20.72 7.896 40.337 22.31 55.02 14.52 14.71 33.64 22.76 54.029 22.76h166.494c39.48 0 76.472 15.701 104.434 44.128 27.745 28.454 43.186 66.228 43.186 106.467v51.972c0 35.388 13.439 68.585 37.966 93.453 24.58 24.995 57.056 38.738 91.67 38.738h8.76c55.544 3.226 100-31.197 120.77-94.776 21.47-66.186 15.44-166.008-15.199-236.77h124.957c46.377-0.082 89.265-23.711 114.52-63.29 25.34-39.649 29.314-89.111 10.6-132.288l-135.314-313.24c-6.166-15.91-17.632-30.632-32.83-41.302-15.304-10.612-33.043-16.183-51.323-16.183z m-590.34 76.18h113.464V421.877H140.383l-1.65-410.828z"  horiz-adv-x="1024" />

    
    <glyph glyph-name="arrow-right" unicode="&#58896;" d="M329.525 704.453l56.285 58.261 393.996-392.021-393.996-392.021-56.285 58.261 331.786 333.761z"  horiz-adv-x="1024" />

    


  </font>
</defs>
</svg>
